<svg width="156" height="28" viewBox="0 0 156 28" fill="none" xmlns="http://www.w3.org/2000/svg">
<path d="M117.192 14.0015H154.462" stroke="black" stroke-width="2" stroke-miterlimit="10" stroke-linecap="round" stroke-linejoin="round"/>
<path d="M141.979 1.19043L154.808 14.0016L141.979 26.8097" stroke="black" stroke-width="2" stroke-miterlimit="10" stroke-linecap="round" stroke-linejoin="round"/>
<g opacity="0.3">
<g clip-path="url(#clip0)">
<path d="M38.8081 13.9985L1.53775 13.9985" stroke="black" stroke-width="2" stroke-miterlimit="10" stroke-linecap="round" stroke-linejoin="round"/>
<path d="M14.0205 26.8096L1.19179 13.9984L14.0205 1.19027" stroke="black" stroke-width="2" stroke-miterlimit="10" stroke-linecap="round" stroke-linejoin="round"/>
</g>
</g>
<path d="M63.7485 7.8V19H62.5965V8.824H59.9565V7.8H63.7485ZM74.8053 19.08C73.9946 19.08 73.2639 18.8987 72.6133 18.536C71.9626 18.1627 71.4506 17.6507 71.0773 17C70.7039 16.3493 70.5173 15.6133 70.5173 14.792C70.5173 13.9707 70.7039 13.2347 71.0773 12.584C71.4506 11.9333 71.9626 11.4267 72.6133 11.064C73.2639 10.7013 73.9946 10.52 74.8053 10.52C75.6159 10.52 76.3466 10.7013 76.9973 11.064C77.6479 11.4267 78.1546 11.9333 78.5173 12.584C78.8906 13.2347 79.0773 13.9707 79.0773 14.792C79.0773 15.6133 78.8906 16.3493 78.5173 17C78.1546 17.6507 77.6479 18.1627 76.9973 18.536C76.3466 18.8987 75.6159 19.08 74.8053 19.08ZM74.8053 18.072C75.4026 18.072 75.9359 17.9387 76.4053 17.672C76.8853 17.3947 77.2586 17.0053 77.5253 16.504C77.7919 16.0027 77.9253 15.432 77.9253 14.792C77.9253 14.152 77.7919 13.5813 77.5253 13.08C77.2586 12.5787 76.8853 12.1947 76.4053 11.928C75.9359 11.6507 75.4026 11.512 74.8053 11.512C74.2079 11.512 73.6693 11.6507 73.1893 11.928C72.7199 12.1947 72.3466 12.5787 72.0693 13.08C71.8026 13.5813 71.6693 14.152 71.6693 14.792C71.6693 15.432 71.8026 16.0027 72.0693 16.504C72.3466 17.0053 72.7199 17.3947 73.1893 17.672C73.6693 17.9387 74.2079 18.072 74.8053 18.072ZM84.1805 8.008C83.6898 8.008 83.3165 8.14133 83.0605 8.408C82.8152 8.67467 82.6925 9.06933 82.6925 9.592V10.584H85.2845V11.544H82.7245V19H81.5885V11.544H80.0845V10.584H81.5885V9.544C81.5885 8.776 81.8072 8.168 82.2445 7.72C82.6925 7.272 83.3218 7.048 84.1325 7.048C84.4525 7.048 84.7618 7.096 85.0605 7.192C85.3592 7.27733 85.6098 7.40533 85.8125 7.576L85.4285 8.424C85.0978 8.14667 84.6818 8.008 84.1805 8.008ZM99.7739 16.056H97.5339V19H96.3819V16.056H90.0619V15.224L95.9979 7.8H97.2779L91.5499 15.032H96.4139V12.44H97.5339V15.032H99.7739V16.056Z" fill="black"/>
<defs>
<clipPath id="clip0">
<rect x="40" y="28" width="40" height="28" transform="rotate(-180 40 28)" fill="white"/>
</clipPath>
</defs>
</svg>
